# xmcd
#
# Track frame offsets:
#	150
#	20302
#	38720
#	55420
#	75095
#	91622
#	105552
#	124217
#	144810
#	164935
#	183327
#	199987
#	219615
#	236147
#	250057
#	268735
#
# Disc length: 3857 seconds
#
# Revision: 1
# Processed by: cddbd v1.5.2PL0 Copyright (c) Steve Scherf et al.
# Submitted via: audiograbber 1.83.01
#
DISCID=d80f0f10
DTITLE=Sound Choice - Star Series 2245
DYEAR=1900
DGENRE=Country
TTITLE0=Yearwood, Trisha - You're Where I Belong
TTITLE1=Messina, Jo Dee - Because You Love Me
TTITLE2=Twain. Shania - You've Got A Way
TTITLE3=Hill, Faith - Breathe
TTITLE4=Hill, Faith - This Kiss
TTITLE5=McBride, Martina - I Love You
TTITLE6=Moorer, Allison - Soft Place To Fall, A
TTITLE7=Yearwood, Trisha - I'll Still Love You More
TTITLE8=Yearwood, Trisha w/Vocal - You're Where I Belong
TTITLE9=Messina, Jo Dee w/Vocal - Because You Love Me
TTITLE10=Twain. Shania w/Vocal - You've Got A Way
TTITLE11=Hill, Faith w/Vocal - Breathe
TTITLE12=Hill, Faith w/Vocal - This Kiss
TTITLE13=McBride, Martina w/Vocal - I Love You
TTITLE14=Moorer, Allison w/Vocal - Soft Place To Fall, A
TTITLE15=Yearwood, Trisha w/Vocal - I'll Still Love You More
EXTD=
EXTT0=
EXTT1=
EXTT2=
EXTT3=
EXTT4=
EXTT5=
EXTT6=
EXTT7=
EXTT8=
EXTT9=
EXTT10=
EXTT11=
EXTT12=
EXTT13=
EXTT14=
EXTT15=
PLAYORDER=
